/* XPM */
static char * top_left_active_xpm[] = {
"11 36 2 1",
"       c None",
".      c #C0C0FF s active_color_2",
"        ...",
"      .....",
"    .......",
"   ........",
"  .........",
"  .........",
" ..........",
" ..........",
"...........",
"...........",
"...........",
"...........",
"...........",
"...........",
"...........",
"...........",
"...........",
"...........",
"...........",
"...........",
"...........",
"...........",
"...........",
"...........",
"...........",
"...........",
"...........",
"...........",
"...........",
"...........",
"...........",
"...........",
"...........",
"...........",
"...........",
"..........."};
