/* XPM */
static char * close_prelight_xpm[] = {
"26 26 4 1",
" 	c None",
".	c #1b2421",
"#	c #FB7C7C",
"$	c #FB7C7C",
"..........................",
"..........................",
"..........................",
"..........................",
"..........................",
"..........................",
"..........................",
"..........................",
"..........................",
".........$$....$$.........",
".........$#$..$#$.........",
"..........$#$$#$..........",
"...........$##$...........",
"...........$##$...........",
"..........$#$$#$..........",
".........$#$..$#$.........",
".........$$....$$.........",
"..........................",
"..........................",
"..........................",
"..........................",
"..........................",
"..........................",
"..........................",
"..........................",
".........................."};
