/* XPM */
static char * stick_toggled_inactive_xpm[] = {
"26 26 4 1",
" 	c None",
".	c #f8f8f8",
"#	c #333333 s inactive_text_color",
"$	c #626277 s inactive_text_color",
"..........................",
"..........................",
"..........................",
"..........................",
"..........................",
"..........................",
"..........................",
"..........................",
"..........................",
"...........$##$...........",
"..........######..........",
".........$######$.........",
".........########.........",
".........########.........",
".........$######$.........",
"..........######..........",
"...........$##$...........",
"..........................",
"..........................",
"..........................",
"..........................",
"..........................",
"..........................",
"..........................",
"..........................",
".........................."};
