/* XPM */
static char * maximize_toggled_pressed_xpm[] = {
"26 26 4 1",
" 	c None",
".	c #221f26",
"#	c #333333 s active_text_color",
"$	c #626277 s active_text_color",
"..........................",
"..........................",
"..........................",
"..........................",
"..........................",
"..........................",
"..........................",
"..............##..........",
"..............##..........",
"..............##..........",
"..............#####.......",
"..............$####.......",
"..........................",
"..........................",
".......####$..............",
".......#####..............",
"..........##..............",
"..........##..............",
"..........##..............",
"..........................",
"..........................",
"..........................",
"..........................",
"..........................",
"..........................",
".........................."};
