<svg xmlns="http://www.w3.org/2000/svg" width="22" height="22"><defs><linearGradient id="A" x1="364.504" y1="527.353" x2="342.503" y2="537.37" gradientUnits="userSpaceOnUse"><stop offset="0" stop-color="#9f74e7"/><stop offset="1" stop-color="#8e49e0"/></linearGradient></defs><g transform="translate(-342.5 -521.362)"><rect width="22" height="22" x="342.5" y="521.362" ry="5.0" fill="url(#A)"/><path d="M360.054 530.084l-7.76 7.047c-.155.154-.386.231-.58.231-.232 0-.425-.077-.58-.231l-4.188-4.19a.85.85 0 0 1-.232-.579.85.85 0 0 1 .232-.579l1.331-1.333c.155-.154.386-.231.58-.231.232 0 .425.077.58.231l2.277 2.626 5.849-5.483c.155-.154.386-.231.58-.231.232 0 .425.077.58.231l1.331 1.333a.85.85 0 0 1 .232.579.85.85 0 0 1-.232.579z" fill="#fff"/></g></svg>
