/* XPM */
static char * top_right_active_xpm[] = {
"16 36 2 1",
"       c None",
".      c #C0C0FF s active_color_2",
"....            ",
"......          ",
"........        ",
".........       ",
"..........      ",
"...........     ",
"............    ",
".............   ",
"..............  ",
"..............  ",
"............... ",
"............... ",
"................",
"................",
"................",
"................",
"................",
"................",
"................",
"................",
"................",
"................",
"................",
"................",
"................",
"................",
"................",
"................",
"................",
"................",
"................",
"................",
"................",
"................",
"................",
"................"};
