/* XPM */
static char * bottom_left_inactive_xpm[] = {
"24 24 2 1",
" 	c None",
".	c #C0C0FF s inactive_color_2",
".                       ",
".                       ",
".                       ",
".                       ",
".                       ",
".                       ",
".                       ",
".                       ",
".                       ",
".                       ",
".                       ",
".                       ",
".                       ",
".                       ",
".                       ",
".                       ",
".                       ",
".                       ",
".                       ",
".                       ",
".                       ",
".                       ",
".                       ",
"........................"};
