/* XPM */
static char * shade_pressed_xpm[] = {
"26 26 4 1",
" 	c None",
".	c #271e1b",
"#	c #333333 s active_text_color",
"$	c #626277 s active_text_color",
"..........................",
"..........................",
"..........................",
"..........................",
"..........................",
"..........................",
"..........................",
"..........................",
"..........................",
"............$$............",
"...........$##$...........",
"..........$####$..........",
".........$#$##$#$.........",
".........$$.##.$$.........",
"............##............",
"............##............",
"............##............",
"..........................",
"..........................",
"..........................",
"..........................",
"..........................",
"..........................",
"..........................",
"..........................",
".........................."};
