/* XPM */
static char * stick_pressed_xpm[] = {
"26 26 4 1",
" 	c None",
".	c #2c281d",
"#	c #333333 s active_text_color",
"$	c #626277 s active_text_color",
"..........................",
"..........................",
"..........................",
"..........................",
"..........................",
"..........................",
"..........................",
"..........................",
"..........................",
"...........$##$...........",
"..........######..........",
".........$#$..$#$.........",
".........##....##.........",
".........##....##.........",
".........$#$..$#$.........",
"..........######..........",
"...........$##$...........",
"..........................",
"..........................",
"..........................",
"..........................",
"..........................",
"..........................",
"..........................",
"..........................",
".........................."};
